<svg xmlns="http://www.w3.org/2000/svg" viewBox="0 0 1267.9 694.7"><linearGradient id="A" gradientUnits="userSpaceOnUse" x1="633.8" y1="661.2" x2="633.8" y2="0"><stop offset="0" stop-color="#dadada"/><stop offset=".148" stop-color="#e4e4e4"/><stop offset=".378" stop-color="#ebebeb"/><stop offset="1" stop-color="#ededed"/></linearGradient><path d="M1080.2 0H187.4c-17.1 0-31.1 14.4-31.1 32.2v618.2c0 5.9 4.7 10.8 10.5 10.8h934c5.8 0 10.5-4.8 10.5-10.8V32.2c0-17.7-13.9-32.2-31.1-32.2zm-3.2 609.8H190.8V52.1H1077v557.7z" fill="url(#A)"/><radialGradient id="B" cx="650.792" cy="-151410.406" r="715.105" gradientTransform="matrix(0.9659 0 0 -5.110900e-02 5.3505 -7073.959)" gradientUnits="userSpaceOnUse"><stop offset="0" stop-color="#f6f6f6"/><stop offset=".581" stop-color="#f4f4f4"/><stop offset=".79" stop-color="#ededed"/><stop offset=".939" stop-color="#e2e2e2"/><stop offset="1" stop-color="#dadada"/></radialGradient><path d="M0 657.8h1267.9v13.4H0z" fill="url(#B)"/><linearGradient id="C" gradientUnits="userSpaceOnUse" x1="633.9" y1="694.7" x2="633.9" y2="671.2"><stop offset="0" stop-color="#9d9d9c"/><stop offset=".338" stop-color="#b1b1b1"/><stop offset=".709" stop-color="#c1c1c0"/><stop offset="1" stop-color="#c6c6c6"/></linearGradient><path d="M633.9 671.2H0s47.6 23.5 95.4 23.5h1077c47.8 0 95.4-23.5 95.4-23.5H633.9z" fill="url(#C)"/><linearGradient id="D" gradientUnits="userSpaceOnUse" x1="634" y1="665.676" x2="634" y2="657.776"><stop offset="0" stop-color="#9d9d9c"/><stop offset=".338" stop-color="#b1b1b1"/><stop offset=".709" stop-color="#c1c1c0"/><stop offset="1" stop-color="#c6c6c6"/></linearGradient><path d="M633.9 657.8h-66.2s5 7.9 10 7.9h112.6c5 0 10-7.9 10-7.9h-66.4z" fill="url(#D)"/><ellipse cx="633.9" cy="28.6" rx="3.8" ry="4" fill="#fff"/></svg>